<svg width="75" height="75" viewBox="0 0 75 75" fill="none" xmlns="http://www.w3.org/2000/svg">
<rect x="1" y="1" width="73" height="73" rx="15" fill="white" stroke="#0050C9" stroke-width="2"/>
<mask id="path-2-outside-1_2_11" maskUnits="userSpaceOnUse" x="15.8571" y="9.49988" width="45" height="54" fill="black">
<rect fill="white" x="15.8571" y="9.49988" width="45" height="54"/>
<path d="M19.9157 61.6399C18.9557 61.6399 18.2557 61.4199 17.8157 60.9799C17.3757 60.5399 17.1557 59.8399 17.1557 58.8799V51.8599C17.1557 51.3399 17.2157 50.8999 17.3357 50.5399C17.4957 50.1799 17.7157 49.8799 17.9957 49.6399L23.9957 44.5999C21.8757 43.9599 20.1957 42.8799 18.9557 41.3599C17.7557 39.7999 17.1557 37.5799 17.1557 34.6999V28.3999C17.1557 26.5999 17.4557 24.9999 18.0557 23.5999C18.6557 22.1999 19.5157 21.0199 20.6357 20.0599L28.4357 13.5199C29.5157 12.6399 30.8557 11.9599 32.4557 11.4799C34.0557 10.9599 35.8757 10.6999 37.9157 10.6999H54.7157C55.6757 10.6999 56.3757 10.9199 56.8157 11.3599C57.2557 11.7999 57.4757 12.4999 57.4757 13.4599V20.5999C57.4757 21.1199 57.3957 21.5599 57.2357 21.9199C57.1157 22.2799 56.9157 22.5799 56.6357 22.8199L51.2357 27.3199C53.7557 27.8799 55.7757 28.9399 57.2957 30.4999C58.8557 32.0199 59.6357 34.3999 59.6357 37.6399V43.9399C59.6357 45.7399 59.3357 47.3399 58.7357 48.7399C58.1357 50.1399 57.2557 51.3199 56.0957 52.2799L48.3557 58.7599C47.2357 59.6799 45.8757 60.3799 44.2757 60.8599C42.6757 61.3799 40.8757 61.6399 38.8757 61.6399H19.9157ZM46.6157 54.4999C50.4557 54.4999 53.4757 53.5999 55.6757 51.7999C57.9157 49.9599 59.0357 47.3399 59.0357 43.9399V37.6399C59.0357 34.2799 58.1757 31.8799 56.4557 30.4399C54.7357 28.9999 52.4757 28.0799 49.6757 27.6799L40.7357 26.4799C40.2157 26.4399 39.8157 26.2399 39.5357 25.8799C39.2557 25.5199 39.1157 25.0799 39.1157 24.5599C39.1157 24.0399 39.2557 23.6199 39.5357 23.2999C39.8157 22.9399 40.2157 22.7599 40.7357 22.7599H54.7157C55.4757 22.7599 56.0157 22.5999 56.3357 22.2799C56.6957 21.9199 56.8757 21.3599 56.8757 20.5999V13.4599C56.8757 12.6999 56.6957 12.1599 56.3357 11.8399C56.0157 11.4799 55.4757 11.2999 54.7157 11.2999H37.9157C34.0357 11.2999 30.9957 12.2199 28.7957 14.0599C26.5957 15.8599 25.4957 18.4599 25.4957 21.8599V28.1599C25.4957 31.5199 26.3357 33.9199 28.0157 35.3599C29.7357 36.7999 31.9957 37.7199 34.7957 38.1199L43.7957 39.3799C44.3157 39.4199 44.6957 39.5999 44.9357 39.9199C45.2157 40.2399 45.3557 40.7399 45.3557 41.4199C45.3557 41.8999 45.2157 42.3199 44.9357 42.6799C44.6957 42.9999 44.3157 43.1599 43.7957 43.1599H27.6557C26.8957 43.1599 26.3357 43.3399 25.9757 43.6999C25.6557 44.0199 25.4957 44.5599 25.4957 45.3199V52.3399C25.4957 53.0999 25.6557 53.6599 25.9757 54.0199C26.3357 54.3399 26.8957 54.4999 27.6557 54.4999H46.6157ZM51.4757 16.6999V17.2999H38.1557C36.4757 17.2999 35.1357 17.7599 34.1357 18.6799C33.1357 19.5999 32.6357 20.7599 32.6357 22.1599V27.0799C32.6357 28.4799 32.9157 29.4599 33.4757 30.0199C34.0357 30.5799 34.7757 30.9399 35.6957 31.0999L48.3557 33.6799C49.5557 33.9199 50.5357 34.4399 51.2957 35.2399C52.0957 36.0399 52.4957 37.4799 52.4957 39.5599V43.0399C52.4957 44.7999 51.8957 46.2599 50.6957 47.4199C49.4957 48.5399 47.8757 49.0999 45.8357 49.0999H30.8957V48.4999H45.8357C47.6757 48.4999 49.1357 47.9999 50.2157 46.9999C51.3357 45.9599 51.8957 44.6399 51.8957 43.0399V39.5599C51.8957 37.6799 51.5557 36.3999 50.8757 35.7199C50.2357 34.9999 49.3557 34.5199 48.2357 34.2799L35.5757 31.6999C34.5357 31.4999 33.6757 31.0999 32.9957 30.4999C32.3557 29.8599 32.0357 28.7199 32.0357 27.0799V22.1599C32.0357 20.5599 32.5957 19.2599 33.7157 18.2599C34.8357 17.2199 36.3157 16.6999 38.1557 16.6999H51.4757Z"/>
</mask>
<path d="M19.9157 61.6399C18.9557 61.6399 18.2557 61.4199 17.8157 60.9799C17.3757 60.5399 17.1557 59.8399 17.1557 58.8799V51.8599C17.1557 51.3399 17.2157 50.8999 17.3357 50.5399C17.4957 50.1799 17.7157 49.8799 17.9957 49.6399L23.9957 44.5999C21.8757 43.9599 20.1957 42.8799 18.9557 41.3599C17.7557 39.7999 17.1557 37.5799 17.1557 34.6999V28.3999C17.1557 26.5999 17.4557 24.9999 18.0557 23.5999C18.6557 22.1999 19.5157 21.0199 20.6357 20.0599L28.4357 13.5199C29.5157 12.6399 30.8557 11.9599 32.4557 11.4799C34.0557 10.9599 35.8757 10.6999 37.9157 10.6999H54.7157C55.6757 10.6999 56.3757 10.9199 56.8157 11.3599C57.2557 11.7999 57.4757 12.4999 57.4757 13.4599V20.5999C57.4757 21.1199 57.3957 21.5599 57.2357 21.9199C57.1157 22.2799 56.9157 22.5799 56.6357 22.8199L51.2357 27.3199C53.7557 27.8799 55.7757 28.9399 57.2957 30.4999C58.8557 32.0199 59.6357 34.3999 59.6357 37.6399V43.9399C59.6357 45.7399 59.3357 47.3399 58.7357 48.7399C58.1357 50.1399 57.2557 51.3199 56.0957 52.2799L48.3557 58.7599C47.2357 59.6799 45.8757 60.3799 44.2757 60.8599C42.6757 61.3799 40.8757 61.6399 38.8757 61.6399H19.9157ZM46.6157 54.4999C50.4557 54.4999 53.4757 53.5999 55.6757 51.7999C57.9157 49.9599 59.0357 47.3399 59.0357 43.9399V37.6399C59.0357 34.2799 58.1757 31.8799 56.4557 30.4399C54.7357 28.9999 52.4757 28.0799 49.6757 27.6799L40.7357 26.4799C40.2157 26.4399 39.8157 26.2399 39.5357 25.8799C39.2557 25.5199 39.1157 25.0799 39.1157 24.5599C39.1157 24.0399 39.2557 23.6199 39.5357 23.2999C39.8157 22.9399 40.2157 22.7599 40.7357 22.7599H54.7157C55.4757 22.7599 56.0157 22.5999 56.3357 22.2799C56.6957 21.9199 56.8757 21.3599 56.8757 20.5999V13.4599C56.8757 12.6999 56.6957 12.1599 56.3357 11.8399C56.0157 11.4799 55.4757 11.2999 54.7157 11.2999H37.9157C34.0357 11.2999 30.9957 12.2199 28.7957 14.0599C26.5957 15.8599 25.4957 18.4599 25.4957 21.8599V28.1599C25.4957 31.5199 26.3357 33.9199 28.0157 35.3599C29.7357 36.7999 31.9957 37.7199 34.7957 38.1199L43.7957 39.3799C44.3157 39.4199 44.6957 39.5999 44.9357 39.9199C45.2157 40.2399 45.3557 40.7399 45.3557 41.4199C45.3557 41.8999 45.2157 42.3199 44.9357 42.6799C44.6957 42.9999 44.3157 43.1599 43.7957 43.1599H27.6557C26.8957 43.1599 26.3357 43.3399 25.9757 43.6999C25.6557 44.0199 25.4957 44.5599 25.4957 45.3199V52.3399C25.4957 53.0999 25.6557 53.6599 25.9757 54.0199C26.3357 54.3399 26.8957 54.4999 27.6557 54.4999H46.6157ZM51.4757 16.6999V17.2999H38.1557C36.4757 17.2999 35.1357 17.7599 34.1357 18.6799C33.1357 19.5999 32.6357 20.7599 32.6357 22.1599V27.0799C32.6357 28.4799 32.9157 29.4599 33.4757 30.0199C34.0357 30.5799 34.7757 30.9399 35.6957 31.0999L48.3557 33.6799C49.5557 33.9199 50.5357 34.4399 51.2957 35.2399C52.0957 36.0399 52.4957 37.4799 52.4957 39.5599V43.0399C52.4957 44.7999 51.8957 46.2599 50.6957 47.4199C49.4957 48.5399 47.8757 49.0999 45.8357 49.0999H30.8957V48.4999H45.8357C47.6757 48.4999 49.1357 47.9999 50.2157 46.9999C51.3357 45.9599 51.8957 44.6399 51.8957 43.0399V39.5599C51.8957 37.6799 51.5557 36.3999 50.8757 35.7199C50.2357 34.9999 49.3557 34.5199 48.2357 34.2799L35.5757 31.6999C34.5357 31.4999 33.6757 31.0999 32.9957 30.4999C32.3557 29.8599 32.0357 28.7199 32.0357 27.0799V22.1599C32.0357 20.5599 32.5957 19.2599 33.7157 18.2599C34.8357 17.2199 36.3157 16.6999 38.1557 16.6999H51.4757Z" fill="#0050C9"/>
<path d="M17.8157 60.9799L18.5228 60.2728L17.8157 60.9799ZM17.3357 50.5399L16.4219 50.1337L16.4023 50.1779L16.387 50.2237L17.3357 50.5399ZM17.9957 49.6399L17.3525 48.8741L17.3449 48.8806L17.9957 49.6399ZM23.9957 44.5999L24.6389 45.3656L26.0542 44.1767L24.2847 43.6426L23.9957 44.5999ZM18.9557 41.3599L18.1631 41.9696L18.1718 41.9809L18.1808 41.992L18.9557 41.3599ZM18.0557 23.5999L17.1366 23.206L17.1366 23.206L18.0557 23.5999ZM20.6357 20.0599L19.9932 19.2935L19.9849 19.3006L20.6357 20.0599ZM28.4357 13.5199L27.804 12.7446L27.7932 12.7536L28.4357 13.5199ZM32.4557 11.4799L32.7431 12.4377L32.754 12.4344L32.7648 12.4309L32.4557 11.4799ZM57.2357 21.9199L56.3219 21.5137L56.3023 21.5578L56.287 21.6036L57.2357 21.9199ZM56.6357 22.8199L57.276 23.5882L57.2865 23.5791L56.6357 22.8199ZM51.2357 27.3199L50.5955 26.5517L49.032 27.8546L51.0188 28.2961L51.2357 27.3199ZM57.2957 30.4999L56.5795 31.1977L56.5885 31.207L56.5978 31.2161L57.2957 30.4999ZM58.7357 48.7399L59.6549 49.1338L58.7357 48.7399ZM56.0957 52.2799L55.4581 51.5095L55.4538 51.5131L56.0957 52.2799ZM48.3557 58.7599L48.9905 59.5326L48.9976 59.5266L48.3557 58.7599ZM44.2757 60.8599L43.9884 59.9021L43.9774 59.9053L43.9666 59.9088L44.2757 60.8599ZM55.6757 51.7999L56.3089 52.5738L56.3104 52.5726L55.6757 51.7999ZM56.4557 30.4399L57.0976 29.6731H57.0976L56.4557 30.4399ZM49.6757 27.6799L49.8171 26.6899L49.8087 26.6888L49.6757 27.6799ZM40.7357 26.4799L40.8687 25.4888L40.8407 25.485L40.8124 25.4828L40.7357 26.4799ZM39.5357 23.2999L40.2883 23.9584L40.3073 23.9366L40.3251 23.9138L39.5357 23.2999ZM56.3357 11.8399L55.5883 12.5042L55.6274 12.5482L55.6713 12.5873L56.3357 11.8399ZM28.7957 14.0599L29.429 14.8339L29.4373 14.827L28.7957 14.0599ZM28.0157 35.3599L27.3649 36.1192L27.3738 36.1266L28.0157 35.3599ZM34.7957 38.1199L34.6543 39.1098L34.6571 39.1102L34.7957 38.1199ZM43.7957 39.3799L43.6571 40.3702L43.6879 40.3745L43.719 40.3769L43.7957 39.3799ZM44.9357 39.9199L44.1357 40.5199L44.1583 40.55L44.1831 40.5784L44.9357 39.9199ZM44.9357 42.6799L44.1464 42.0659L44.141 42.0729L44.1357 42.0799L44.9357 42.6799ZM25.9757 54.0199L25.2283 54.6842L25.2674 54.7282L25.3113 54.7673L25.9757 54.0199ZM51.4757 16.6999H52.4757V15.6999H51.4757V16.6999ZM51.4757 17.2999V18.2999H52.4757V17.2999H51.4757ZM34.1357 18.6799L33.4586 17.9439L34.1357 18.6799ZM35.6957 31.0999L35.8954 30.12L35.8813 30.1171L35.867 30.1147L35.6957 31.0999ZM48.3557 33.6799L48.156 34.6597L48.1596 34.6605L48.3557 33.6799ZM51.2957 35.2399L50.5707 35.9286L50.5795 35.9379L50.5886 35.947L51.2957 35.2399ZM50.6957 47.4199L51.378 48.1509L51.3844 48.145L51.3907 48.1389L50.6957 47.4199ZM30.8957 49.0999H29.8957V50.0999H30.8957V49.0999ZM30.8957 48.4999V47.4999H29.8957V48.4999H30.8957ZM50.2157 46.9999L50.8951 47.7336L50.8962 47.7327L50.2157 46.9999ZM50.8757 35.7199L50.1283 36.3842L50.1478 36.4062L50.1686 36.427L50.8757 35.7199ZM48.2357 34.2799L48.4452 33.302L48.4354 33.3L48.2357 34.2799ZM35.5757 31.6999L35.7754 30.72L35.7646 30.7179L35.5757 31.6999ZM32.9957 30.4999L32.2886 31.207L32.3107 31.2291L32.3341 31.2497L32.9957 30.4999ZM33.7157 18.2599L34.3817 19.0058L34.389 18.9993L34.3962 18.9927L33.7157 18.2599ZM19.9157 60.6399C19.0803 60.6399 18.695 60.4449 18.5228 60.2728L17.1086 61.687C17.8164 62.3948 18.8311 62.6399 19.9157 62.6399V60.6399ZM18.5228 60.2728C18.3507 60.1006 18.1557 59.7153 18.1557 58.8799H16.1557C16.1557 59.9644 16.4008 60.9791 17.1086 61.687L18.5228 60.2728ZM18.1557 58.8799V51.8599H16.1557V58.8799H18.1557ZM18.1557 51.8599C18.1557 51.4104 18.2084 51.0842 18.2844 50.8561L16.387 50.2237C16.2231 50.7156 16.1557 51.2693 16.1557 51.8599H18.1557ZM18.2495 50.946C18.3534 50.7123 18.4869 50.5359 18.6465 50.3991L17.3449 48.8806C16.9445 49.2238 16.638 49.6474 16.4219 50.1337L18.2495 50.946ZM18.6389 50.4056L24.6389 45.3656L23.3525 43.8342L17.3525 48.8742L18.6389 50.4056ZM24.2847 43.6426C22.33 43.0524 20.8288 42.074 19.7306 40.7277L18.1808 41.992C19.5626 43.6858 21.4214 44.8673 23.7067 45.5572L24.2847 43.6426ZM19.7483 40.7502C18.7325 39.4295 18.1557 37.4577 18.1557 34.6999H16.1557C16.1557 37.7021 16.7789 40.1702 18.1631 41.9696L19.7483 40.7502ZM18.1557 34.6999V28.3999H16.1557V34.6999H18.1557ZM18.1557 28.3999C18.1557 26.7111 18.437 25.2488 18.9748 23.9938L17.1366 23.206C16.4744 24.7509 16.1557 26.4887 16.1557 28.3999H18.1557ZM18.9748 23.9938C19.5166 22.7298 20.2866 21.6762 21.2865 20.8191L19.9849 19.3006C18.7448 20.3635 17.7948 21.67 17.1366 23.206L18.9748 23.9938ZM21.2782 20.8262L29.0782 14.2862L27.7932 12.7536L19.9932 19.2936L21.2782 20.8262ZM29.0674 14.2951C30.0276 13.5127 31.2442 12.8874 32.7431 12.4377L32.1684 10.5221C30.4672 11.0324 29.0038 11.767 27.804 12.7446L29.0674 14.2951ZM32.7648 12.4309C34.2464 11.9494 35.9591 11.6999 37.9157 11.6999V9.69988C35.7923 9.69988 33.865 9.97036 32.1466 10.5288L32.7648 12.4309ZM37.9157 11.6999H54.7157V9.69988H37.9157V11.6999ZM54.7157 11.6999C55.5511 11.6999 55.9364 11.8948 56.1086 12.067L57.5228 10.6528C56.815 9.94493 55.8003 9.69988 54.7157 9.69988V11.6999ZM56.1086 12.067C56.2808 12.2391 56.4757 12.6244 56.4757 13.4599H58.4757C58.4757 12.3753 58.2307 11.3606 57.5228 10.6528L56.1086 12.067ZM56.4757 13.4599V20.5999H58.4757V13.4599H56.4757ZM56.4757 20.5999C56.4757 21.0226 56.41 21.3155 56.3219 21.5137L58.1495 22.326C58.3814 21.8042 58.4757 21.2172 58.4757 20.5999H56.4757ZM56.287 21.6036C56.2226 21.7969 56.1232 21.9421 55.9849 22.0606L57.2865 23.5791C57.7082 23.2176 58.0088 22.7628 58.1844 22.2361L56.287 21.6036ZM55.9955 22.0517L50.5955 26.5517L51.8759 28.0881L57.2759 23.5881L55.9955 22.0517ZM51.0188 28.2961C53.3846 28.8218 55.2188 29.8012 56.5795 31.1977L58.0119 29.802C56.3326 28.0785 54.1268 26.938 51.4526 26.3437L51.0188 28.2961ZM56.5978 31.2161C57.8876 32.4728 58.6357 34.5387 58.6357 37.6399H60.6357C60.6357 34.2611 59.8238 31.5669 57.9936 29.7836L56.5978 31.2161ZM58.6357 37.6399V43.9399H60.6357V37.6399H58.6357ZM58.6357 43.9399C58.6357 45.6287 58.3544 47.0909 57.8166 48.346L59.6549 49.1338C60.317 47.5888 60.6357 45.8511 60.6357 43.9399H58.6357ZM57.8166 48.346C57.2784 49.6016 56.4942 50.652 55.4581 51.5095L56.7333 53.0503C58.0172 51.9877 58.993 50.6781 59.6549 49.1338L57.8166 48.346ZM55.4538 51.5131L47.7138 57.9931L48.9976 59.5266L56.7376 53.0466L55.4538 51.5131ZM47.721 57.9872C46.7178 58.8112 45.4806 59.4544 43.9884 59.9021L44.5631 61.8177C46.2708 61.3054 47.7536 60.5485 48.9904 59.5326L47.721 57.9872ZM43.9666 59.9088C42.4832 60.3909 40.79 60.6399 38.8757 60.6399V62.6399C40.9614 62.6399 42.8682 62.3688 44.5848 61.8109L43.9666 59.9088ZM38.8757 60.6399H19.9157V62.6399H38.8757V60.6399ZM46.6157 55.4999C50.6056 55.4999 53.8763 54.5642 56.3089 52.5738L55.0425 51.0259C53.0751 52.6356 50.3058 53.4999 46.6157 53.4999V55.4999ZM56.3104 52.5726C58.8228 50.5089 60.0357 47.5815 60.0357 43.9399H58.0357C58.0357 47.0983 57.0086 49.4109 55.041 51.0272L56.3104 52.5726ZM60.0357 43.9399V37.6399H58.0357V43.9399H60.0357ZM60.0357 37.6399C60.0357 34.1338 59.1388 31.382 57.0976 29.6731L55.8138 31.2066C57.2127 32.3778 58.0357 34.4259 58.0357 37.6399H60.0357ZM57.0976 29.6731C55.2019 28.086 52.7538 27.1095 49.8171 26.6899L49.5343 28.6698C52.1976 29.0503 54.2695 29.9137 55.8138 31.2066L57.0976 29.6731ZM49.8087 26.6888L40.8687 25.4888L40.6027 27.471L49.5427 28.671L49.8087 26.6888ZM40.8124 25.4828C40.5288 25.461 40.4065 25.3706 40.3251 25.2659L38.7464 26.4938C39.2249 27.1091 39.9026 27.4187 40.659 27.4769L40.8124 25.4828ZM40.3251 25.2659C40.2004 25.1056 40.1157 24.8902 40.1157 24.5599H38.1157C38.1157 25.2695 38.311 25.9341 38.7464 26.4938L40.3251 25.2659ZM40.1157 24.5599C40.1157 24.2258 40.2013 24.0577 40.2883 23.9584L38.7831 22.6414C38.3101 23.182 38.1157 23.854 38.1157 24.5599H40.1157ZM40.3251 23.9138C40.3874 23.8337 40.4752 23.7599 40.7357 23.7599V21.7599C39.9562 21.7599 39.244 22.0461 38.7464 22.6859L40.3251 23.9138ZM40.7357 23.7599H54.7157V21.7599H40.7357V23.7599ZM54.7157 23.7599C55.5711 23.7599 56.4422 23.5876 57.0428 22.987L55.6286 21.5728C55.5893 21.6121 55.3803 21.7599 54.7157 21.7599V23.7599ZM57.0428 22.987C57.6654 22.3644 57.8757 21.4957 57.8757 20.5999H55.8757C55.8757 21.2241 55.726 21.4754 55.6286 21.5728L57.0428 22.987ZM57.8757 20.5999V13.4599H55.8757V20.5999H57.8757ZM57.8757 13.4599C57.8757 12.577 57.6707 11.6886 57.0001 11.0925L55.6713 12.5873C55.7207 12.6311 55.8757 12.8228 55.8757 13.4599H57.8757ZM57.0831 11.1755C56.487 10.5048 55.5986 10.2999 54.7157 10.2999V12.2999C55.3528 12.2999 55.5444 12.4549 55.5883 12.5042L57.0831 11.1755ZM54.7157 10.2999H37.9157V12.2999H54.7157V10.2999ZM37.9157 10.2999C33.8841 10.2999 30.5888 11.2566 28.1541 13.2928L29.4373 14.827C31.4026 13.1832 34.1874 12.2999 37.9157 12.2999V10.2999ZM28.1625 13.2859C25.6842 15.3136 24.4957 18.2251 24.4957 21.8599H26.4957C26.4957 18.6946 27.5072 16.4062 29.4289 14.8338L28.1625 13.2859ZM24.4957 21.8599V28.1599H26.4957V21.8599H24.4957ZM24.4957 28.1599C24.4957 31.6592 25.369 34.4084 27.3649 36.1191L28.6665 34.6006C27.3024 33.4314 26.4957 31.3805 26.4957 28.1599H24.4957ZM27.3738 36.1266C29.2695 37.7137 31.7176 38.6903 34.6543 39.1098L34.9371 37.1299C32.2738 36.7495 30.2019 35.886 28.6576 34.5931L27.3738 36.1266ZM34.6571 39.1102L43.6571 40.3702L43.9344 38.3895L34.9344 37.1295L34.6571 39.1102ZM43.719 40.3769C44.0447 40.402 44.1173 40.4954 44.1357 40.5199L45.7357 39.3199C45.2741 38.7044 44.5867 38.4378 43.8724 38.3828L43.719 40.3769ZM44.1831 40.5784C44.232 40.6342 44.3557 40.845 44.3557 41.4199H46.3557C46.3557 40.6347 46.1994 39.8455 45.6883 39.2614L44.1831 40.5784ZM44.3557 41.4199C44.3557 41.69 44.2823 41.8911 44.1464 42.0659L45.7251 43.2938C46.1491 42.7486 46.3557 42.1097 46.3557 41.4199H44.3557ZM44.1357 42.0799C44.1255 42.0935 44.1145 42.1048 44.0826 42.1182C44.043 42.1349 43.956 42.1599 43.7957 42.1599V44.1599C44.5271 44.1599 45.2524 43.9242 45.7357 43.2799L44.1357 42.0799ZM43.7957 42.1599H27.6557V44.1599H43.7957V42.1599ZM27.6557 42.1599C26.7599 42.1599 25.8912 42.3702 25.2686 42.9928L26.6828 44.407C26.7802 44.3096 27.0315 44.1599 27.6557 44.1599V42.1599ZM25.2686 42.9928C24.6679 43.5934 24.4957 44.4645 24.4957 45.3199H26.4957C26.4957 44.6553 26.6435 44.4463 26.6828 44.407L25.2686 42.9928ZM24.4957 45.3199V52.3399H26.4957V45.3199H24.4957ZM24.4957 52.3399C24.4957 53.2101 24.6741 54.0608 25.2283 54.6842L26.7231 53.3555C26.6373 53.259 26.4957 52.9896 26.4957 52.3399H24.4957ZM25.3113 54.7673C25.9348 55.3215 26.7855 55.4999 27.6557 55.4999V53.4999C27.0059 53.4999 26.7366 53.3583 26.6401 53.2725L25.3113 54.7673ZM27.6557 55.4999H46.6157V53.4999H27.6557V55.4999ZM50.4757 16.6999V17.2999H52.4757V16.6999H50.4757ZM51.4757 16.2999H38.1557V18.2999H51.4757V16.2999ZM38.1557 16.2999C36.2869 16.2999 34.6843 16.8163 33.4586 17.9439L34.8128 19.4158C35.5871 18.7034 36.6645 18.2999 38.1557 18.2999V16.2999ZM33.4586 17.9439C32.2459 19.0597 31.6357 20.4898 31.6357 22.1599H33.6357C33.6357 21.0299 34.0256 20.14 34.8128 19.4158L33.4586 17.9439ZM31.6357 22.1599V27.0799H33.6357V22.1599H31.6357ZM31.6357 27.0799C31.6357 28.5576 31.9207 29.8791 32.7686 30.727L34.1828 29.3128C33.9107 29.0407 33.6357 28.4022 33.6357 27.0799H31.6357ZM32.7686 30.727C33.4989 31.4573 34.4387 31.8963 35.5244 32.0851L35.867 30.1147C35.1127 29.9835 34.5725 29.7024 34.1828 29.3128L32.7686 30.727ZM35.496 32.0797L48.156 34.6597L48.5554 32.7L35.8954 30.12L35.496 32.0797ZM48.1596 34.6605C49.1805 34.8646 49.9681 35.2943 50.5707 35.9286L52.0207 34.5511C51.1033 33.5855 49.9309 32.9751 48.5518 32.6993L48.1596 34.6605ZM50.5886 35.947C51.0954 36.4537 51.4957 37.544 51.4957 39.5599H53.4957C53.4957 37.4157 53.0961 35.626 52.0028 34.5328L50.5886 35.947ZM51.4957 39.5599V43.0399H53.4957V39.5599H51.4957ZM51.4957 43.0399C51.4957 44.5453 50.9942 45.7405 50.0007 46.7009L51.3907 48.1389C52.7972 46.7793 53.4957 45.0545 53.4957 43.0399H51.4957ZM50.0134 46.6888C49.0408 47.5966 47.6868 48.0999 45.8357 48.0999V50.0999C48.0646 50.0999 49.9506 49.4832 51.378 48.1509L50.0134 46.6888ZM45.8357 48.0999H30.8957V50.0999H45.8357V48.0999ZM31.8957 49.0999V48.4999H29.8957V49.0999H31.8957ZM30.8957 49.4999H45.8357V47.4999H30.8957V49.4999ZM45.8357 49.4999C47.8618 49.4999 49.5871 48.9448 50.8951 47.7336L49.5363 46.2661C48.6843 47.055 47.4896 47.4999 45.8357 47.4999V49.4999ZM50.8962 47.7327C52.2304 46.4937 52.8957 44.9033 52.8957 43.0399H50.8957C50.8957 44.3765 50.441 45.4261 49.5353 46.2671L50.8962 47.7327ZM52.8957 43.0399V39.5599H50.8957V43.0399H52.8957ZM52.8957 39.5599C52.8957 37.6369 52.564 35.9939 51.5828 35.0128L50.1686 36.427C50.5474 36.8058 50.8957 37.7228 50.8957 39.5599H52.8957ZM51.6231 35.0555C50.8165 34.1481 49.7328 33.578 48.4452 33.3021L48.0262 35.2577C48.9786 35.4618 49.6549 35.8517 50.1283 36.3842L51.6231 35.0555ZM48.4354 33.3L35.7754 30.72L35.376 32.6797L48.036 35.2597L48.4354 33.3ZM35.7646 30.7179C34.8703 30.5459 34.1823 30.2132 33.6573 29.75L32.3341 31.2497C33.1691 31.9865 34.2011 32.4539 35.3869 32.6819L35.7646 30.7179ZM33.7028 29.7928C33.3541 29.4441 33.0357 28.6507 33.0357 27.0799H31.0357C31.0357 28.789 31.3573 30.2757 32.2886 31.207L33.7028 29.7928ZM33.0357 27.0799V22.1599H31.0357V27.0799H33.0357ZM33.0357 22.1599C33.0357 20.8236 33.4895 19.8025 34.3817 19.0058L33.0497 17.5139C31.7019 18.7173 31.0357 20.2961 31.0357 22.1599H33.0357ZM34.3962 18.9927C35.2948 18.1582 36.5137 17.6999 38.1557 17.6999V15.6999C36.1177 15.6999 34.3766 16.2816 33.0353 17.5271L34.3962 18.9927ZM38.1557 17.6999H51.4757V15.6999H38.1557V17.6999Z" fill="#0050C9" mask="url(#path-2-outside-1_2_11)"/>
</svg>
